<svg id="svg2985" xmlns="http://www.w3.org/2000/svg" viewBox="0 0 179.06 445.91"><defs><style>.cls-1{fill:#fff;stroke:#000;}</style></defs><g id="layer2"><path id="path2995" class="cls-1" d="M99.89,66S110,42.64,125.75,32.57s23-14.83,31.18-14.83a66.32,66.32,0,0,1,38.41,12.55C210.55,41.12,217,46.83,222,55s7.41,13.31,7,14.26-29.66,18.06-29.66,18.06-3.23,1.33-4,.19-6.09-10.07-11.22-13.87-12.74-7.23-19.39-6.85-12.55.19-18.63,6.27-7.61,7.8-7.61,7.8-1.33,2.66-3,1.9-34.6-14.83-34.6-14.83Z" transform="translate(-80.52 -17.24)"/><path id="path3785" class="cls-1" d="M101,82.4,128.4,93.7s3.22,1.34,2.82,2.55-1.75,2.69-2.56,6.32-1.88,7.53-1.61,8.6-.81,4.31-3.76,3.5-9.82-3.09-11.43-3.09-9.28-1.75-10.22-1.75-.67-.13-3-1.34-3.76-.81-6.18-1.08-3.77.13-3.9-.81a14.79,14.79,0,0,1,.67-5.37c.67-2.16,4.57-16.81,4.57-16.81s-.13-2.55,1.89-2.69a22.41,22.41,0,0,1,5.24.67Z" transform="translate(-80.52 -17.24)"/><path id="path3787" class="cls-1" d="M94,124.22s18.29,5,21.38,5.11a22.2,22.2,0,0,1,5.51.94s2.29-.27,2,1.21-1.21,12.5-1.08,14.92-.4,4.44-1.88,5a26.3,26.3,0,0,1-7.66.8c-3.36,0-7.66,0-10.22-.13s-4.57-1.08-7-1.48-1.88-.81-5.78-1.21-5.24.27-6.45-.81-2-.8-1.75-3.76,0-3.9.54-6.86a68.27,68.27,0,0,1,1.88-8.47c.94-3.09.4-3.9,1.75-5.11s.26-1.74,2.68-1.74a11.41,11.41,0,0,1,4.71.8,4.65,4.65,0,0,1,1.34.81Z" transform="translate(-80.52 -17.24)"/><path id="path3789" class="cls-1" d="M81.88,164.68l39.39,1.48s.4,12.5,1.34,16.4,2.15,5.11.94,5.78-16.27,3.5-22.32,4.17a100.27,100.27,0,0,1-13.31.4h-4.7Z" transform="translate(-80.52 -17.24)"/><path id="path3791" class="cls-1" d="M87.39,208l39.12-6.45s.81-.14,1.48.94,7,18,7,18,.54,1.21-.27,1.48-39,13.71-39,13.71-.27.27-1.21-2.42-7-23.12-7-23.12Z" transform="translate(-80.52 -17.24)"/><path id="path3793" class="cls-1" d="M101.91,251.53l38.18-17.48,9.28,19.23s.67,1.48-.54,1.88-35.76,21-35.76,21Z" transform="translate(-80.52 -17.24)"/><path id="path3795" class="cls-1" d="M155,81.19a32.83,32.83,0,0,0-6.18,4.71,40.21,40.21,0,0,0-5.25,8.87,40.22,40.22,0,0,0-2.55,7c-.41,2.15-1.35,4.44-1.35,5.11s-.27,2.29.94,2.29a4.1,4.1,0,0,0,2.83-1.62c.8-.8,3.63-4.7,5-6.31s1.62-2.56,4.71-4.58A58.44,58.44,0,0,0,158,93.29c.67-.53,1.48-1.34,1.48-1.34s1.21-3.09.53-4.71-1.07-3.76-1.47-4.7.13-1.21-1.08-1.48a5.14,5.14,0,0,0-2.42.13Z" transform="translate(-80.52 -17.24)"/><path id="path3797" class="cls-1" d="M158.78,110.1l-24.6,22.05-.68,21.11s-.13.94.95.67,26.75-22.86,26.75-22.86,1.21-1.07.81-5.64-1.48-14.93-1.48-14.93Z" transform="translate(-80.52 -17.24)"/><path id="path3799" class="cls-1" d="M133.5,173.15l28-24.33s2.16-1.48,2.42.8S165,166.16,165,166.16s-.4,2.28-1.61,3.09-24.47,19.23-24.47,19.23-2.42,1.47-2.83-.14-2.55-15.19-2.55-15.19Z" transform="translate(-80.52 -17.24)"/><path id="path3801" class="cls-1" d="M141.57,203.67l22.59-19.76s3.22-2.29,3.36,4.7.53,11.43.53,11.43,0,1.34-2,3-17.88,15.86-17.88,15.86-2.83,2.83-3.63-.27-3.09-11.69-3.09-11.69Z" transform="translate(-80.52 -17.24)"/><path id="path3803" class="cls-1" d="M168.86,221.28l1.34,15.6L158.1,247.5,151,233.65s-.81-2.15.67-2.69,15.6-10.08,15.6-10.08Z" transform="translate(-80.52 -17.24)"/><path id="path3805" class="cls-1" d="M172.62,78.51s9.28,6.18,13.71,13.84,5.11,9.82,5.11,9.82.27,1.21-.94,1.21-2.82-2.56-4.44-3.23-7.39-6.05-9.81-7S170.6,91,170.6,91l-.67-.14-.13-11.56a1.88,1.88,0,0,1,1.34-.67,8.68,8.68,0,0,0,1.48-.13Z" transform="translate(-80.52 -17.24)"/><path id="path3807" class="cls-1" d="M174.1,108.89l16.8,8.87a12,12,0,0,1,3,.54c1.88.54,1.35-1.48,3.23,1.88s1.07.81,2.69,4.84,3.09,5.78,3.09,9.15-.94,4.57.27,5.51,1.88,1.48,1.34,2.55-.13,1.61-1.34,1.75-29.44-15.19-29.44-15.19-.81,1.07-.81-3.5-.67-13.31-.67-13.31-.81-3.09-.14-3.09Z" transform="translate(-80.52 -17.24)"/><path id="path3809" class="cls-1" d="M178.14,146.13,204.89,160s2.29-.54,2.42,1.21.95,19.36.95,19.36-.95,3.36-4,1.21-27.16-18.29-27.16-18.29a3.89,3.89,0,0,1-1.74-3.22c.13-2-1.21-12.77-1.21-12.77s-.54-1.21.4-1.75a7.86,7.86,0,0,1,3-.54Z" transform="translate(-80.52 -17.24)"/><path id="path3811" class="cls-1" d="M178.54,182s23.39,10.76,26.08,13,3.77,1.88,3.9,5a55,55,0,0,1-.67,11.29c-.67,3.63.27,4.84-2.15,4.7a13.45,13.45,0,0,1-7.26-2.15c-2.83-1.74-19.36-12.5-19.36-12.5s-2.15-2-1.75-2.69,0-15.19,0-15.19Z" transform="translate(-80.52 -17.24)"/><path id="path3813" class="cls-1" d="M188.62,224l11.7,9.14s3.49.14,2.42,5.51-2,11-2,11-.27,3.22-4.71-.14-14.38-11.16-14.38-11.16-2.69-1.07-2.42-3.63-.14-12.1-.14-12.1-.53-5.78,3.5-2.82,6.05,4.17,6.05,4.17Z" transform="translate(-80.52 -17.24)"/><path id="path3815" class="cls-1" d="M207.17,98.67l24.74-13s1.88-2.28,3.49-.54,7.26,17.75,7.26,17.75,2.83,5-.94,6S220.35,118,220.35,118a4.54,4.54,0,0,0-3.77,1.21c-1.61,1.61-5,5.38-6.18.94s-4.84-15.32-5.92-15.59-1.88-3.9-1.21-4.17,3.9-1.75,3.9-1.75Z" transform="translate(-80.52 -17.24)"/><path id="path3817" class="cls-1" d="M218.87,134.57a30.53,30.53,0,0,1,9.95-4.57c5.11-1.08,5-1.88,7.66-1.61s2.29.8,3.77-.14,0-1.75,2.28-2.28a20.76,20.76,0,0,1,5.24-.81c1.75,0,3.63-.14,4,2.42s2.15,9.81,2.42,13.31,1.07,4.7.67,6.18-2.82,3.1-4.57,3.1-8.47,1.34-10.62,1.74-6.72,1.62-8.47,1.75-2.69-.13-4.84.4-2.82-.13-3.5.95-1.21,2.42-3,2.28-2.56-.4-2.83-1.48a54.07,54.07,0,0,1-.8-6.85c-.27-3.37,0-4-.14-6.19a8.61,8.61,0,0,0-1.21-4,2.64,2.64,0,0,1,.81-2.69,11.3,11.3,0,0,1,3.09-1.48Z" transform="translate(-80.52 -17.24)"/><path id="path3819" class="cls-1" d="M222.9,169.25s6.18-1.88,8.74-2,3.23-1.21,5.78-1.48,3.23-.53,5.11-.26,1.21.4,3,.13,4-1.88,5.64-2.15,2.15-.94,4,.27a4.09,4.09,0,0,1,2.15,3.22c.13.81,1.21,16.68,1.21,16.68s-.81,4-2.69,4.3-25.68.94-25.68.94-2-1.48-3.5-.67a6.45,6.45,0,0,1-3.49.8,3.32,3.32,0,0,1-1.21-.13,1.69,1.69,0,0,1-1.21-.27c-.54-.4-1.88.67-1.88-2.55V172.34a1.46,1.46,0,0,1,1.07-2.15c1.88-.54,3-.94,3-.94Z" transform="translate(-80.52 -17.24)"/><path id="path3821" class="cls-1" d="M220.62,202.06s18.28-.67,21-.4a51.35,51.35,0,0,0,5.38.27c.81,0,.67.8,2.15.94a3.59,3.59,0,0,0,2.69-.68c.67-.4,3.76-1.07,4.84-.26s2.55.4,2.42,3.49-1.34,7.26-1.88,11.43-2.56,7.12-2.56,8.2a10.06,10.06,0,0,0,.27,2.15s-2,.4-3.63.54-7.53-1.61-8.47-1.75-3.22-.67-5.91-1.07a29,29,0,0,0-4.84-.68c-3.63-.27-4.84-.4-6.86-.4s-3.36.67-5-.54-1.62-.54-2.29-1.61-.54-.27-.81-2.56a29.3,29.3,0,0,1-.13-6.72c.27-.94,0-7.26.4-7.93s.14-1.88,1.08-2.15a9.26,9.26,0,0,1,2.15-.27Z" transform="translate(-80.52 -17.24)"/><path id="path3823" class="cls-1" d="M216.32,238.36s20.57,3.76,24.6,5.92,4.44,1.61,6.86,2.42,4.3-.27,4,3.76-2.55,15.73-2.55,15.73l-1.75,8.34s-1.61,4.3-5.24,2.55S210.94,260,210.94,260s-3.36.26-2.82-2.42,1.61-7.53,1.88-8.21,2-6.18,2.29-7.12-.94-4.57.53-4.57a13.85,13.85,0,0,1,3.5.67Z" transform="translate(-80.52 -17.24)"/><path id="path3825" class="cls-1" d="M188.08,421.2l27,15.73s2.69,1.48,1.08,3-5.38,6.85-6.86,7.93-18.15,13.58-24.87,14.12-24.07,1.21-30.65.13-23-5.51-28.51-10.62-17.88-14.12-19.09-16.94-2.55-6.45-2.55-6.45-1.08-2,.4-2.69a24.6,24.6,0,0,1,5.65-1.88c3-.68,26.48-8.74,26.48-8.74a6.93,6.93,0,0,1,5.38,0c3,1.21,2.29,1.48,3.63,3.49s1.62,4,5.65,5.11,5.11,2.15,9.68,2.29,7,.53,10.22-.27,5.37-1.21,7.39-3,3.5-3.63,4.71-3.76a5.45,5.45,0,0,1,3.49.53,8.06,8.06,0,0,1,2.42,2.15s-1.48-.26-.67-.13Z" transform="translate(-80.52 -17.24)"/><path id="path3827" class="cls-1" d="M200.86,338.65l33.61,3.76s2.69-.13,2.69,2-2.29,22.32-2.29,22.32a2.29,2.29,0,0,1-3.09,1.75c-2.69-.68-32.94-5.79-32.94-5.79s-2.69-.26-2.69-2.28,1.75-20,1.75-20-.27-2.29,1.08-2.29a2.72,2.72,0,0,1,1.88.54Z" transform="translate(-80.52 -17.24)"/><path id="path3831" class="cls-1" d="M199.11,373.74s26.22,5.78,28.37,5.92,4.3.26,5,.67,2-.27,1.75,2.42a96.6,96.6,0,0,1-1.75,9.54,6.91,6.91,0,0,1-2.28,3.77c-.95.67-3.77.8-6.32.27s-17.88-5-21.92-5.92-8.47-1.34-8.74-2.69a17.11,17.11,0,0,1-.4-6.32c.4-2.95.27-5.37.67-6.45s.81-2.82,2.42-2.55a9.54,9.54,0,0,1,3.23,1.34Z" transform="translate(-80.52 -17.24)"/><path id="path3833" class="cls-1" d="M193.73,399.69l33.48,9.68a3.39,3.39,0,0,1,1.61,3.9c-.81,2.55-3.23,11-5.38,13s-1.75,3.09-3,2.29-6.85-4-11-7-12.23-8.6-14.65-8.87S189.7,411,189.43,410s-.94-1.34-.14-4.43-.27-4.58,1.35-5.25a9,9,0,0,1,3.09-.67Z" transform="translate(-80.52 -17.24)"/><path id="path3835" class="cls-1" d="M100.43,392.43l33.75.13s1.21-1.07,2.15-.4a2.62,2.62,0,0,1,1.47,2.29,65.72,65.72,0,0,1,.41,6.72c0,.81.94,2.28-1.48,2.69s-36.7,9.27-36.7,9.27-.81.95-.81-2.55-.27-5.24-.27-7.93-.13-6,.27-7.13.54-2.82,1.21-3.09Z" transform="translate(-80.52 -17.24)"/><path id="path3837" class="cls-1" d="M105.81,362.85s10.75.13,15.86.94,7,1.75,9.28,1.88,6.86.54,6.86.54,2.55.27,2.69,2.15-.14,4.17-.14,6.72a8.76,8.76,0,0,1-1.88,4.84,11.75,11.75,0,0,1-6.86,1.35c-4.43-.27-5-.27-9.81-.54s-10-.27-11.29-.27H101.1s-2.55.54-1.61-3.63.81-6.32,1.35-8.2.13-3.36,1.21-4.3a10.68,10.68,0,0,1,3.76-1.48Z" transform="translate(-80.52 -17.24)"/><path id="path3839" class="cls-1" d="M114.28,325.07s10.49,2.29,13.31,2.29,2-1.08,4.44-.27,4,.67,5.78,1.34,2.69,1.35,4.3,1.35,2.55.67,2.42,4.43-1.08,5.38-1.08,8.88a70.16,70.16,0,0,1-1.34,10.08l-37.38-1.88s-1.21-1.89.54-5.11a22.48,22.48,0,0,0,2.42-7.93,11.37,11.37,0,0,1,1.88-5.11,14.46,14.46,0,0,0,2-4.17c.27-.94.67-4,.67-4Z" transform="translate(-80.52 -17.24)"/><path id="path3841" class="cls-1" d="M155.82,343.22l7.39,7.53s.68.4.41,3.49-1.35,8.21-1.35,8.21.94,1.88-.53,1.74-5-1.34-5.65-2.28-3.09-2.29-3.36-2.83a18.84,18.84,0,0,1-1.21-2.42c-.14-.53-1.08-3.89-.67-5.91s.4-4.71,1.47-5.92a7.17,7.17,0,0,1,2.42-1.74Z" transform="translate(-80.52 -17.24)"/><path id="path3843" class="cls-1" d="M153.13,372.4l5.65,6.32s.8.27.8,3.49.14,5.38-1.07,5.38a10.26,10.26,0,0,1-5.25-2c-1.07-1.08-3.49-1.89-4.16-3.23s-1.62-2.69-1.08-5,1.48-4.3,2.29-4.7a8,8,0,0,1,2.82-.27Z" transform="translate(-80.52 -17.24)"/><path id="path3845" class="cls-1" d="M149.9,397.54s2.55,1.75,3.9,3,2,1.34,2.15,4.3.54,5.92,0,7.26-.27,1.88-1.48,1.88-1.75-.8-2.28-1.61a23.24,23.24,0,0,1-2-2.69c-.54-1.08-2-3-2.29-4.3s-1.07-3.09-1.07-3.9a4.83,4.83,0,0,1,.54-2.69,5.83,5.83,0,0,1,1.74-1.48Z" transform="translate(-80.52 -17.24)"/><path id="path3847" class="cls-1" d="M174.91,352.9s2.15-1.75,3.5-1.75,3.22-.13,4-1.21a8.81,8.81,0,0,1,3.63-2.28c.4,0,.81.13.81,1.88a41.61,41.61,0,0,1-.41,5.78,38.23,38.23,0,0,0-.4,5c0,1.08,2.28.41-.54,1.89s-7.12,3.63-7.12,3.63l-2.42-.14s-1.35-.67-1.48-1.75a18.65,18.65,0,0,1-.14-4c.14-1.61.54-3.36.54-3.9V352.9Z" transform="translate(-80.52 -17.24)"/><path id="path3849" class="cls-1" d="M172.22,381.27s5.51-2.82,7.8-3.23,2.69-.13,2.55,1.89-.13,3.89-.13,3.89.4,1.62-.67,2.16-3.1,2-4.58,2.28-4.3,1.61-5.24.81-.94-3.09-.67-4,.94-3.76.94-3.76Z" transform="translate(-80.52 -17.24)"/><path id="path3851" class="cls-1" d="M171,404.53l5.65-4.44s2.28-1.07,2.55.27-1.48,4.57-1.48,4.57-1.34,7.26-2.55,8.47-2.83,2.69-4,3-2.15.81-2.15-1.88.68-7.8.68-7.8Z" transform="translate(-80.52 -17.24)"/></g></svg>