<svg id="svg2985" xmlns="http://www.w3.org/2000/svg" viewBox="0 0 317 470"><defs><style>.cls-1{fill:#fff;stroke:#000;}</style></defs><g id="layer2"><path id="path2995" class="cls-1" d="M227.78,64.5s-32.9,14.07-34.6,14.84-3.05-1.91-3.05-1.91-1.52-1.71-7.6-7.79-12-5.89-18.63-6.28-14.26,3-19.4,6.85S134.05,83,133.29,84.09s-4-.19-4-.19S100,66.79,99.63,65.84s2.09-6.09,7-14.26,11.41-13.88,26.62-24.72a66.32,66.32,0,0,1,38.4-12.55c8.18,0,15.4,4.75,31.18,14.83S228.73,62.6,228.73,62.6Z"/><path id="path3785" class="cls-1" d="M227.66,79a21.76,21.76,0,0,1,5.24-.67c2,.13,1.88,2.69,1.88,2.69s3.9,14.65,4.57,16.8a14.62,14.62,0,0,1,.67,5.38c-.13.94-1.47.54-3.89.8s-3.9-.13-6.19,1.08-2,1.34-3,1.34-8.6,1.75-10.21,1.75-8.48,2.29-11.43,3.09-4-2.42-3.77-3.49-.8-5-1.61-8.61-2.15-5.1-2.55-6.31,2.82-2.56,2.82-2.56L227.65,79Z"/><path id="path3787" class="cls-1" d="M234.65,120.79A4.52,4.52,0,0,1,236,120a11.24,11.24,0,0,1,4.71-.81c2.42,0,1.34.54,2.69,1.75s.81,2,1.75,5.11a69.3,69.3,0,0,1,1.88,8.47c.54,3,.27,3.9.54,6.85s-.54,2.69-1.75,3.77-2.56.4-6.45.81-3.37.8-5.79,1.21-4.43,1.34-7,1.47-6.85.14-10.21.14a26.26,26.26,0,0,1-7.67-.81c-1.48-.54-2-2.55-1.88-5s-.81-13.45-1.08-14.93,2-1.21,2-1.21a22.76,22.76,0,0,1,5.51-.94c3.1-.13,21.38-5.11,21.38-5.11Z"/><path id="path3789" class="cls-1" d="M245.41,189.49H240.7a99,99,0,0,1-13.31-.41c-6-.67-21.11-3.49-22.32-4.16s0-1.89.94-5.78,1.35-16.41,1.35-16.41l39.39-1.48Z"/><path id="path3791" class="cls-1" d="M241.1,206.7s-6,20.43-7,23.12-1.21,2.42-1.21,2.42-38.18-13.44-39-13.71-.27-1.48-.27-1.48,6.32-16.94,7-18,1.47-.94,1.47-.94l39.13,6.45Z"/><path id="path3793" class="cls-1" d="M215.56,272.71s-34.56-20.57-35.77-21-.53-1.88-.53-1.88l9.27-19.22,38.18,17.47Z"/><path id="path3795" class="cls-1" d="M173.61,77.77a5.22,5.22,0,0,0-2.42-.14c-1.21.27-.67.54-1.07,1.48s-.81,3.1-1.48,4.71.54,4.7.54,4.7.8.81,1.48,1.35,1.74,1.34,4.84,3.36,3.36,3,4.7,4.57,4.17,5.51,5,6.32a4,4,0,0,0,2.82,1.61c1.21,0,.94-1.61.94-2.28s-.94-3-1.34-5.11a40.83,40.83,0,0,0-2.56-7,40.61,40.61,0,0,0-5.24-8.88,32.57,32.57,0,0,0-6.19-4.7Z"/><path id="path3797" class="cls-1" d="M168.1,107.08S167,117.43,166.62,122s.8,5.65.8,5.65,25.68,22.58,26.76,22.85.94-.67.94-.67l-.67-21.11-24.61-22Z"/><path id="path3799" class="cls-1" d="M195.12,169.72s-2.15,13.58-2.55,15.2-2.82.13-2.82.13-23.26-18.42-24.47-19.22-1.62-3.1-1.62-3.1.81-14.25,1.08-16.53,2.42-.81,2.42-.81l28,24.33Z"/><path id="path3801" class="cls-1" d="M187.19,203.47s-2.29,8.61-3.09,11.7-3.63.27-3.63.27-15.87-14.25-17.88-15.87-2-3-2-3,.4-4.43.54-11.42,3.36-4.71,3.36-4.71l22.58,19.76Z"/><path id="path3803" class="cls-1" d="M161.38,217.45S175.49,227,177,227.53s.68,2.69.68,2.69l-7.13,13.85-12.1-10.62,1.34-15.6Z"/><path id="path3805" class="cls-1" d="M156,75.08a8.83,8.83,0,0,0,1.48.13,1.91,1.91,0,0,1,1.35.68l-.14,11.56-.67.13s-3.23,1.21-5.65,2.15-8.2,6.32-9.81,7-3.23,3.22-4.44,3.22-.94-1.21-.94-1.21.67-2.15,5.11-9.81S156,75.08,156,75.08Z"/><path id="path3807" class="cls-1" d="M154.52,105.46h2c.67,0-.13,3.1-.13,3.1s-.68,8.74-.68,13.31-.8,3.49-.8,3.49-28.23,15.33-29.44,15.19-.81-.67-1.35-1.74.14-1.62,1.35-2.56.26-2.15.26-5.51,1.48-5.11,3.1-9.14.8-1.48,2.69-4.84,1.34-1.35,3.22-1.88a12,12,0,0,1,3-.54l16.8-8.88Z"/><path id="path3809" class="cls-1" d="M151.16,141.76a7.82,7.82,0,0,1,3,.54c.95.54.41,1.75.41,1.75s-1.35,10.76-1.21,12.77a3.92,3.92,0,0,1-1.75,3.23s-24.07,16.13-27.16,18.28-4-1.21-4-1.21.81-17.61.94-19.36,2.42-1.21,2.42-1.21l26.75-13.85Z"/><path id="path3811" class="cls-1" d="M151.29,180.08s-.4,14.52,0,15.2-1.74,2.68-1.74,2.68S133,208.72,130.19,210.47a13.57,13.57,0,0,1-7.26,2.15c-2.42.13-1.48-1.08-2.15-4.71a55,55,0,0,1-.68-11.29c.14-3.09,1.21-2.69,3.9-5s26.08-13.05,26.08-13.05Z"/><path id="path3813" class="cls-1" d="M140,220.54s2-1.21,6.05-4.16,3.5,2.82,3.5,2.82-.4,9.54-.13,12.1-2.42,3.63-2.42,3.63-9.95,7.8-14.39,11.16-4.7.13-4.7.13-1-5.64-2-11,2.42-5.51,2.42-5.51L140,220.54Z"/><path id="path3815" class="cls-1" d="M121.45,95.25s3.23,1.48,3.9,1.74-.13,3.9-1.21,4.17-4.7,11.16-5.91,15.6-4.57.67-6.19-.94a4.48,4.48,0,0,0-3.76-1.21s-17.61-8.07-21.38-9.15-.94-6-.94-6,5.65-16,7.26-17.74,3.5.54,3.5.54l24.73,13Z"/><path id="path3817" class="cls-1" d="M109.75,131.14a11.64,11.64,0,0,1,3.1,1.48,2.63,2.63,0,0,1,.8,2.69,8.8,8.8,0,0,0-1.21,4c-.13,2.15.14,2.82-.13,6.18a56,56,0,0,1-.81,6.86c-.27,1.07-1.07,1.34-2.82,1.48s-2.29-1.21-3-2.29-1.34-.4-3.49-.94a21,21,0,0,0-4.84-.4c-1.75-.14-6.32-1.35-8.47-1.75s-8.88-1.75-10.63-1.75-4.16-1.61-4.57-3.09.41-2.69.68-6.19,2-10.75,2.42-13.31,2.28-2.42,4-2.42a20.63,20.63,0,0,1,5.24.81c2.29.54.81,1.34,2.29,2.29s1.07.4,3.76.13,2.56.54,7.67,1.61a30.77,30.77,0,0,1,9.94,4.57Z"/><path id="path3819" class="cls-1" d="M105.72,165.82s1.08.41,3,1a1.47,1.47,0,0,1,1.08,2.15v13.71c0,3.23-1.35,2.15-1.88,2.55a1.63,1.63,0,0,1-1.21.27,3.1,3.1,0,0,1-1.21.14,6.42,6.42,0,0,1-3.5-.81c-1.48-.81-3.5.67-3.5.67s-23.79-.67-25.67-.94-2.69-4.3-2.69-4.3,1.07-15.86,1.21-16.67a4.07,4.07,0,0,1,2.15-3.23c1.88-1.21,2.42-.54,4-.27s3.9,1.89,5.65,2.15,1.07.14,3-.13,2.55,0,5.1.27,3.23,1.34,5.79,1.48,8.73,2,8.73,2Z"/><path id="path3821" class="cls-1" d="M108,198.63a9.37,9.37,0,0,1,2.16.27c.94.27.67,1.48,1.07,2.15s.14,7,.4,7.94a28.73,28.73,0,0,1-.13,6.72c-.27,2.28-.13,1.48-.81,2.55s-.67.41-2.28,1.62-3,.53-5,.53-3.22.14-6.85.41a30.33,30.33,0,0,0-4.84.67c-2.69.4-5,.94-5.92,1.08s-6.86,1.88-8.47,1.74-3.63-.53-3.63-.53a10.22,10.22,0,0,0,.27-2.16c0-1.07-2-4-2.55-8.2s-1.75-8.33-1.89-11.42,1.35-2.69,2.42-3.5,4.17-.13,4.84.27a3.6,3.6,0,0,0,2.69.67c1.48-.13,1.35-.94,2.15-.94a51.35,51.35,0,0,0,5.38-.27c2.69-.27,21,.4,21,.4Z"/><path id="path3823" class="cls-1" d="M112.3,234.93a13.85,13.85,0,0,1,3.5-.67c1.48,0,.27,3.63.54,4.57s2,6.46,2.28,7.13,1.35,5.51,1.89,8.2-2.83,2.42-2.83,2.42S90,271.91,86.36,273.65s-5.25-2.55-5.25-2.55l-1.74-8.34S77.08,251.07,76.81,247s1.61-2.95,4-3.76,2.83-.27,6.86-2.42,24.6-5.92,24.6-5.92Z"/><path id="path3825" class="cls-1" d="M140.54,417.77c.81-.13-.67.14-.67.14a8.06,8.06,0,0,1,2.42-2.15,5.56,5.56,0,0,1,3.5-.54c1.21.13,2.69,2,4.7,3.76s4.17,2.16,7.4,3,5.64.41,10.22.27,5.64-1.21,9.68-2.28,4.3-3.1,5.64-5.11.67-2.29,3.63-3.5a6.93,6.93,0,0,1,5.38,0s23.53,8.07,26.48,8.74a24.6,24.6,0,0,1,5.65,1.88c1.48.67.4,2.69.4,2.69s-1.34,3.63-2.55,6.45S208.84,442.91,203.33,448s-21.91,9.55-28.5,10.62-23.93.41-30.66-.13-23.39-13-24.87-14.12-5.24-6.45-6.85-7.93,1.07-3,1.07-3l27-15.73Z"/><path id="path3827" class="cls-1" d="M127.76,335.22a2.77,2.77,0,0,1,1.89-.53c1.34,0,1.07,2.28,1.07,2.28s1.75,18,1.75,20-2.69,2.29-2.69,2.29-30.25,5.11-32.94,5.78a2.29,2.29,0,0,1-3.09-1.75S91.47,343.16,91.47,341s2.68-2,2.68-2l33.61-3.77Z"/><path id="path3831" class="cls-1" d="M129.51,370.31a9.89,9.89,0,0,1,3.23-1.34c1.61-.27,2,1.48,2.42,2.55s.27,3.5.67,6.46a16.7,16.7,0,0,1-.4,6.32c-.27,1.34-4.71,1.74-8.74,2.69s-19.36,5.37-21.91,5.91-5.38.4-6.32-.27a7,7,0,0,1-2.29-3.76,94.78,94.78,0,0,1-1.74-9.55c-.27-2.69,1.07-2,1.74-2.42s2.83-.54,5-.67,28.36-5.92,28.36-5.92Z"/><path id="path3833" class="cls-1" d="M134.89,396.26a8.91,8.91,0,0,1,3.1.68c1.61.67.53,2.15,1.34,5.24s.14,3.5-.13,4.44-3,2.42-5.38,2.69-10.49,5.91-14.66,8.87-9.81,6.18-11,7-.81-.27-3-2.29-4.57-10.48-5.37-13a3.4,3.4,0,0,1,1.61-3.9l33.47-9.68Z"/><path id="path3835" class="cls-1" d="M228.19,389c.68.27.81,2,1.21,3.1s.27,4.43.27,7.12-.27,4.44-.27,7.93-.8,2.56-.8,2.56-34.28-8.87-36.7-9.28-1.48-1.88-1.48-2.69a65.58,65.58,0,0,1,.4-6.72,2.63,2.63,0,0,1,1.48-2.28c.94-.68,2.15.4,2.15.4l33.74-.14Z"/><path id="path3837" class="cls-1" d="M222.81,359.42a10.78,10.78,0,0,1,3.77,1.48c1.07.94.67,2.42,1.21,4.31s.4,4,1.34,8.2-1.61,3.63-1.61,3.63h-9.41c-1.35,0-6.45,0-11.29.27s-5.38.26-9.82.53a11.78,11.78,0,0,1-6.85-1.34,8.78,8.78,0,0,1-1.89-4.84c0-2.56-.27-4.84-.13-6.72s2.69-2.15,2.69-2.15,4.57-.41,6.85-.54,4.17-1.08,9.28-1.88,15.86-.95,15.86-.95Z"/><path id="path3839" class="cls-1" d="M216.36,321.51s.4,3.09.67,4a14.73,14.73,0,0,0,2,4.17,11.26,11.26,0,0,1,1.88,5.11,22.57,22.57,0,0,0,2.42,7.93c1.75,3.23.54,5.11.54,5.11l-37.38,1.88a69.94,69.94,0,0,1-1.34-10.08c0-3.5-.94-5.11-1.08-8.87s.81-4.44,2.42-4.44,2.56-.67,4.31-1.34,3.36-.54,5.78-1.35,1.61.27,4.43.27,13.31-2.29,13.31-2.29Z"/><path id="path3841" class="cls-1" d="M173.88,339.66a7.29,7.29,0,0,1,2.42,1.75c1.08,1.21,1.08,3.9,1.48,5.91s-.54,5.38-.67,5.92a21,21,0,0,1-1.21,2.42c-.27.54-2.69,1.88-3.36,2.82s-4.17,2.15-5.65,2.29-.54-1.75-.54-1.75-1.07-5.11-1.34-8.2.4-3.5.4-3.5l7.39-7.53Z"/><path id="path3843" class="cls-1" d="M175.49,369a8,8,0,0,1,2.83.27c.8.41,1.75,2.42,2.28,4.71s-.4,3.63-1.07,5-3.09,2.15-4.17,3.23a10.16,10.16,0,0,1-5.24,2c-1.21,0-1.08-2.15-1.08-5.38s.81-3.5.81-3.5l5.64-6.32Z"/><path id="path3845" class="cls-1" d="M179.53,393.85a6,6,0,0,1,1.75,1.47,4.85,4.85,0,0,1,.54,2.69c0,.81-.81,2.56-1.08,3.9s-1.75,3.23-2.28,4.3a22.41,22.41,0,0,1-2,2.69c-.54.81-1.08,1.62-2.29,1.62s-.94-.54-1.48-1.89-.13-4.3,0-7.26.81-3.09,2.16-4.3a48.6,48.6,0,0,1,3.89-3Z"/><path id="path3847" class="cls-1" d="M153.71,349.47v3.1c0,.53.41,2.28.54,3.9a18.76,18.76,0,0,1-.13,4c-.14,1.07-1.48,1.75-1.48,1.75l-2.42.13s-4.3-2.15-7.13-3.63-.53-.81-.53-1.88a38.5,38.5,0,0,0-.41-5,41.49,41.49,0,0,1-.4-5.78c0-1.74.4-1.88.81-1.88a8.75,8.75,0,0,1,3.63,2.29c.8,1.07,2.68,1.21,4,1.21s3.49,1.74,3.49,1.74Z"/><path id="path3849" class="cls-1" d="M156.4,377.84s.68,2.83.95,3.77.26,3.23-.68,4-3.76-.54-5.24-.8-3.5-1.75-4.57-2.29-.67-2.15-.67-2.15,0-1.88-.14-3.9.27-2.29,2.56-1.88,7.79,3.22,7.79,3.22Z"/><path id="path3851" class="cls-1" d="M159,403.26s.67,5.1.67,7.79-.94,2.15-2.15,1.89-2.82-1.75-4-3-2.56-8.47-2.56-8.47-1.75-3.23-1.48-4.57,2.56-.27,2.56-.27l5.64,4.43Z"/></g></svg>